<?xml version="1.0" standalone="no"?>
<!DOCTYPE svg PUBLIC "-//W3C//DTD SVG 20010904//EN"
 "http://www.w3.org/TR/2001/REC-SVG-20010904/DTD/svg10.dtd">
<svg version="1.0" xmlns="http://www.w3.org/2000/svg"
 width="400.000000pt" height="400.000000pt" viewBox="0 0 400.000000 400.000000"
 preserveAspectRatio="xMidYMid meet">
<metadata>
Created by potrace 1.14, written by Peter Selinger 2001-2017
</metadata>
<g transform="translate(0.000000,400.000000) scale(0.100000,-0.100000)"
fill="#000000" stroke="none">
<path d="M1196 3971 c-3 -14 -8 -59 -11 -98 -3 -40 -8 -80 -9 -90 -2 -10 -7
-54 -10 -98 -4 -44 -9 -91 -11 -105 -2 -14 -7 -56 -10 -95 -3 -38 -8 -88 -10
-110 -3 -22 -7 -65 -10 -95 -2 -30 -7 -75 -9 -100 -3 -25 -8 -74 -11 -109 -3
-35 -7 -73 -10 -85 -3 -11 -7 -37 -10 -56 -2 -19 -6 -46 -9 -60 -5 -27 -15
-116 -22 -190 -16 -184 -23 -1185 -11 -1590 4 -113 9 -295 12 -405 3 -110 8
-256 10 -325 4 -149 12 -208 34 -275 27 -83 -24 -78 921 -81 528 -1 829 2 837
8 24 19 71 212 89 358 3 25 7 56 9 70 22 127 22 915 1 1495 -10 247 -15 428
-21 660 -6 251 -9 284 -35 415 -28 138 -29 150 -45 385 -7 97 -16 210 -20 245
-5 37 -11 118 -21 260 -3 46 -8 87 -10 90 -3 3 -365 5 -804 6 l-799 0 -5 -25z"/>
</g>
</svg>
