<?xml version="1.0" standalone="no"?>
<!DOCTYPE svg PUBLIC "-//W3C//DTD SVG 20010904//EN"
 "http://www.w3.org/TR/2001/REC-SVG-20010904/DTD/svg10.dtd">
<svg version="1.0" xmlns="http://www.w3.org/2000/svg"
 width="100.000000pt" height="100.000000pt" viewBox="0 0 100.000000 100.000000"
 preserveAspectRatio="xMidYMid meet">
<metadata>
Created by potrace 1.14, written by Peter Selinger 2001-2017
</metadata>
<g transform="translate(0.000000,100.000000) scale(0.100000,-0.100000)"
fill="#000000" stroke="none">
<path d="M370 946 c-156 -45 -275 -165 -316 -319 -38 -144 8 -308 116 -416 88
-88 193 -130 321 -127 46 0 90 5 97 9 6 5 12 24 12 44 0 28 -3 33 -13 24 -8
-6 -30 -17 -50 -26 l-37 -15 0 80 0 80 50 0 c43 0 50 3 50 20 0 17 -7 20 -50
20 l-50 0 0 90 0 90 50 0 c43 0 50 3 50 20 0 17 -7 20 -50 20 l-50 0 0 90 0
90 95 0 94 0 10 -37 c5 -21 12 -60 16 -88 9 -73 34 -95 107 -95 l59 0 -6 -36
c-3 -20 -7 -40 -10 -44 -2 -4 4 -15 14 -24 18 -17 19 -15 30 34 49 226 -94
456 -319 515 -61 16 -166 17 -220 1z m90 -112 l0 -74 -85 0 -86 0 15 29 c25
47 66 90 105 110 20 11 39 17 44 14 4 -2 7 -38 7 -79z m154 15 c15 -17 33 -44
42 -60 l15 -29 -86 0 -85 0 0 73 c0 41 3 76 6 80 11 10 80 -30 108 -64z m-308
19 c-9 -13 -26 -42 -38 -65 -20 -39 -25 -43 -60 -43 -21 0 -38 4 -38 8 0 12
60 66 105 95 50 32 51 32 31 5z m387 -10 c41 -28 97 -80 97 -90 0 -4 -17 -8
-38 -8 -36 0 -40 3 -57 40 -10 22 -24 45 -32 51 -13 12 -18 29 -7 29 3 0 20
-10 37 -22z m-467 -155 c-15 -52 -22 -91 -25 -145 -1 -15 -11 -18 -61 -18
l-60 0 6 43 c4 23 16 63 27 90 l19 47 50 0 c42 0 49 -2 44 -17z m234 -73 l0
-90 -111 0 -110 0 5 52 c4 28 11 68 18 90 l11 38 94 0 93 0 0 -90z m388 43
c11 -27 23 -67 26 -90 l5 -43 -59 0 c-50 0 -60 3 -61 18 -3 54 -10 93 -25 145
-5 15 2 17 44 17 l50 0 20 -47z m-647 -190 c0 -10 2 -27 4 -38 2 -11 6 -36 9
-57 3 -20 9 -43 12 -52 5 -13 -2 -16 -44 -16 l-50 0 -20 48 c-11 26 -23 66
-27 90 l-6 42 61 0 c50 0 60 -3 61 -17z m259 -73 l0 -90 -94 0 -93 0 -11 43
c-6 23 -14 63 -17 90 l-6 47 110 0 111 0 0 -90z m-205 -149 c3 -11 17 -36 31
-56 14 -21 23 -40 20 -43 -10 -9 -136 93 -136 110 0 4 18 8 39 8 30 0 41 -5
46 -19z m205 -54 c0 -41 -3 -76 -6 -80 -4 -3 -23 2 -44 13 -40 20 -81 64 -106
111 l-15 29 86 0 85 0 0 -73z"/>
<path d="M667 493 c-4 -3 -7 -98 -7 -210 0 -184 2 -203 17 -203 9 0 31 14 48
30 l32 31 23 -56 c13 -31 27 -58 32 -61 9 -6 108 36 108 46 0 4 -11 33 -25 64
-14 31 -25 58 -25 60 0 1 21 3 46 3 78 1 78 16 -1 90 -38 36 -105 99 -148 139
-77 73 -87 80 -100 67z m141 -161 c78 -71 91 -87 75 -93 -10 -3 -24 -4 -31 -1
-7 2 -19 -1 -26 -7 -12 -10 -10 -22 16 -78 23 -52 27 -68 16 -74 -22 -15 -26
-11 -54 51 -29 66 -44 73 -81 38 l-23 -21 0 143 c0 79 3 140 8 136 4 -4 49
-47 100 -94z"/>
</g>
</svg>
